<svg xmlns="http://www.w3.org/2000/svg" viewBox="0 0 512 512">
  <defs>
    <linearGradient id="e" x1="0" y1="1" x2="1" y2="0">
      <stop offset="0" stop-color="#002C87"/>
      <stop offset=".45" stop-color="#0E76C8"/>
      <stop offset="1" stop-color="#83DC37"/>
    </linearGradient>
  </defs>
  <rect width="512" height="512" rx="115" fill="url(#e)"/>
  <g fill="#fff">
    <path d="M256 222c-50-42-114-62-186-64v198c72 2 136 22 186 64z" fill-opacity=".2"/>
    <path d="M256 222c50-42 114-62 186-64v198c-72 2-136 22-186 64z" fill-opacity=".2"/>
    <path d="M70 158c72 2 136 22 186 64 50-42 114-62 186-64v198c-72 2-136 22-186 64-50-42-114-62-186-64z" fill="none" stroke="#fff" stroke-width="24" stroke-linejoin="round"/>
    <path d="M174 272l66 66 132-140" fill="none" stroke="#fff" stroke-width="50" stroke-linecap="round" stroke-linejoin="round"/>
  </g>
</svg>
